<?xml version="1.0" encoding="UTF-8"?>
<svg id="Mitel_Dark_Blue" data-name="Mitel Dark Blue" xmlns="http://www.w3.org/2000/svg" viewBox="0 0 73 73">
  <defs>
    <style>
      .cls-1 {
        fill: #fff;
      }
    </style>
  </defs>
  <path class="cls-1" d="M51.16,46.17h-14.07v-3.22h13.61v-.58c0-7.39-5.77-13.6-13.14-14.15l-.47-.03v-2.62c1.19-.27,2.07-1.32,2.07-2.59,0-1.47-1.19-2.66-2.66-2.66s-2.66,1.19-2.66,2.66c0,1.27.9,2.33,2.09,2.59v2.61l-.47.03c-7.37.54-13.14,6.76-13.14,14.15v.58h13.61v3.22h-14.03l-1.36,6.5h31.93l-1.31-6.5ZM36.5,21.18c1,0,1.81.81,1.81,1.81s-.81,1.81-1.81,1.81-1.81-.81-1.81-1.81.81-1.81,1.81-1.81ZM24.03,41.8h-.56l.05-.56c.58-6.67,6.28-11.9,12.98-11.9s12.41,5.23,12.99,11.9l.05.56h-25.51ZM50.43,51.52h-28.47l.13-.62.67-3.17.09-.41h27.37l.08.41.64,3.17.12.61h-.62Z"/>
</svg>